<?xml version="1.0" encoding="utf-8"?>
<!-- Generator: Adobe Illustrator 21.0.0, SVG Export Plug-In . SVG Version: 6.00 Build 0)  -->
<svg version="1.1" id="图层_1" xmlns="http://www.w3.org/2000/svg" xmlns:xlink="http://www.w3.org/1999/xlink" x="0px" y="0px"
	 viewBox="0 0 213.7 40" style="enable-background:new 0 0 213.7 40;" xml:space="preserve">
<style type="text/css">
	.st0{fill:#FFFFFF;}
</style>
<g>
	<polygon class="st0" points="7.5,13.2 14.6,13.2 7.1,39.7 0,39.7 	"/>
	<polygon class="st0" points="32.2,13.2 39.7,39.7 32.6,39.7 25.1,13.2 	"/>
	<polygon class="st0" points="78.4,32.7 80.7,28.6 68.7,28.6 68.7,32.7 	"/>
	<polygon class="st0" points="68.7,35.2 68.7,39.2 79.6,39.2 81.8,35.2 	"/>
	<path class="st0" d="M109.6,1.3v18.6h10l5.4-5.6v-13H109.6z M113.9,15.5V5.6h5.7l0,9.9L113.9,15.5z"/>
	<polygon class="st0" points="88.4,39.5 94.4,39.5 94.4,35.4 94.3,35.4 94.3,31.8 115,31.8 116.8,28.6 94.3,28.6 94.3,25.5 
		118.7,25.5 118.7,35.4 96.5,35.4 96.5,39.5 118.6,39.5 124.6,33.8 124.6,21.3 88.4,21.3 	"/>
	<polygon class="st0" points="22.5,0.1 16.4,0 16.4,5.7 0.5,5.7 0.5,9.2 16.4,9.2 16.4,39.7 22.5,39.7 	"/>
	<polygon class="st0" points="25.7,5.7 25.7,9.2 36.7,9.2 39.1,5.7 	"/>
	<polygon class="st0" points="78.4,26 80.9,22 65.5,22 65.5,19.9 74,19.9 80.1,14.5 80.1,0.6 53.6,0.6 53.6,5.3 74,5.3 74,15.2 
		51.5,15.2 51.5,11.7 71,11.7 73.2,8.4 51.5,8.4 51.5,7.5 51.5,7.5 51.5,0.6 45.4,0.6 45.4,19.9 59.4,19.9 59.4,22 54.9,22 
		55.9,20.8 47.9,20.8 43.5,26.8 51.2,26.8 51.9,26 59.4,26 59.4,28.6 45.5,28.6 45.5,32.7 59.4,32.6 59.4,35.2 44.3,35.2 44.3,39.2 
		65.5,39.2 65.5,35.2 65.5,35.2 65.5,32.7 65.5,32.7 65.5,28.6 65.5,28.6 65.5,26 	"/>
	<g>
		<polygon class="st0" points="101.2,12.6 105.8,12.6 107.7,8.4 100.7,8.4 100.7,6.3 105.8,6.3 107.9,2 95.9,2 96.8,0.1 90.4,0.1 
			87,7.3 93.5,7.2 93.9,6.3 95.3,6.3 95.3,8.4 87.7,8.4 87.7,12.6 94.8,12.6 87.2,19.9 93.9,19.9 		"/>
		<polygon class="st0" points="102.5,13.6 99.3,16.7 102.5,19.8 108.7,19.8 		"/>
	</g>
	<polygon class="st0" points="143.2,14.7 146.9,14.7 149.4,11.5 143.2,11.5 	"/>
	<polygon class="st0" points="131.3,40 136.6,37.7 136.6,30.9 131.3,30.9 	"/>
	<polygon class="st0" points="143.2,6.5 143.2,9.6 147,9.6 149.4,6.5 	"/>
	<polygon class="st0" points="137.4,11.5 132.1,11.5 132.1,14.7 137.4,14.7 137.4,16.3 141,15 141,14.7 141,14.7 141,11.5 141,11.5 
		141,9.6 141,9.6 141,6.5 141,6.5 141,4.8 146.9,4.8 149.4,1.7 141,1.7 141,0.4 137.4,0.4 137.4,1.7 132,1.7 132,4.8 137.4,4.8 
		137.4,6.5 131.9,6.5 131.9,9.6 137.4,9.6 	"/>
	<polygon class="st0" points="146.4,30.8 139.8,30.8 139.8,39.9 159.3,39.9 161.2,36.6 146.4,36.6 	"/>
	<path class="st0" d="M153.4,35.3c0.4,0.2,0.8,0.3,1.3,0.3c1,0,1.7-0.3,2-0.9c0.4-0.6,0.5-1.2,0.5-1.6c0-0.4-0.1-0.9-0.4-1.3
		c-0.2-0.4-0.6-0.7-1-0.9c-0.4-0.2-0.8-0.3-1.3-0.3c-0.4,0-0.8,0.1-1.3,0.3c-0.4,0.2-0.7,0.5-1,0.9c-0.2,0.4-0.4,0.8-0.3,1.3
		c0,0.5,0.1,0.9,0.3,1.3C152.7,34.8,153,35.1,153.4,35.3z"/>
	<polygon class="st0" points="163.2,39.9 168.6,37.6 168.6,30.7 163.2,30.7 	"/>
	<polygon class="st0" points="168.4,16.6 162.3,16.6 162.3,16.6 131.6,16.6 131.6,19.7 162.3,19.7 162.3,21.5 133.5,21.5 
		133.5,24.3 160.9,24.3 162.3,22.2 162.3,26.5 131.6,26.5 131.6,29.7 162.4,29.7 168.4,26.2 	"/>
	<g>
		<polygon class="st0" points="160.2,15 160.2,5 160.2,5 160.2,4.5 166.3,4.5 168.8,1.4 160.2,1.4 160.2,0.2 156.6,0.2 156.6,1.4 
			151.3,1.4 151.3,4.5 156.6,4.5 156.6,6.3 151.1,6.3 151.1,9.4 156.6,9.4 156.6,11.3 151.4,11.3 151.4,14.5 156.6,14.5 156.6,16.3 
			160.2,15 160.2,15 		"/>
		<polygon class="st0" points="162.4,9.4 166.3,9.4 168.8,6.3 162.4,6.3 		"/>
		<polygon class="st0" points="162.4,14.5 166.3,14.5 168.8,11.3 162.4,11.3 		"/>
	</g>
	<g>
		<polygon class="st0" points="211.6,0.7 176.8,0.7 176.8,5.1 209,5.1 		"/>
		<polygon class="st0" points="203.1,22 207.5,39.6 213.7,39.6 209.2,22 		"/>
		<polygon class="st0" points="174.9,39.3 205.1,39.3 203.8,35 181.8,35 188.4,19.4 211.1,19.4 213.6,14.1 174.7,14.1 174.7,19.4 
			182,19.4 174.9,35.6 		"/>
	</g>
</g>
</svg>
